{"accessors" : [{"bufferView" : 0, "byteOffset" : 0, "componentType" : 5123, "count" : 1500, "type" : "SCALAR", "max" : [1311], "min" : [0]}, {"bufferView" : 1, "byteOffset" : 0, "componentType" : 5126, "count" : 1312, "type" : "VEC3", "max" : [1391.9237060546875, 2579.9111328125, 732.972412109375], "min" : [-1406.1895751953125, -74.26334381103516, -1347.2010498046875], "name" : "POSITION"}, {"bufferView" : 1, "byteOffset" : 12, "componentType" : 5126, "count" : 1312, "type" : "VEC3", "max" : [0.9856817722320557, 0.9997844099998474, 0.9951136112213135], "min" : [-0.9856817722320557, -0.9966075420379639, -0.9975802302360535], "name" : "NORMAL"}, {"bufferView" : 1, "byteOffset" : 24, "componentType" : 5126, "count" : 1312, "type" : "VEC2", "max" : [0.9172414541244507, -0.009999999776482582], "min" : [0.009999999776482582, -0.9900000095367432], "name" : "TEXCOORD_0"}], "asset" : {"generator" : "Aspose.3D 22.6", "version" : "2.0"}, "buffers" : [{"uri" : "data:application/octet-stream;base64,", "byteLength" : 51008}], "bufferViews" : [{"buffer" : 0, "byteOffset" : 0, "byteLength" : 3000, "target" : 34963}, {"buffer" : 0, "byteOffset" : 3004, "byteLength" : 48000, "byteStride" : 32, "target" : 34962}], "cameras" : [{"perspective" : {"aspectRatio" : 1.4999999999999998, "yfov" : 0.43833943764363487, "zfar" : 4000, "znear" : 10}, "type" : "perspective", "name" : "Camera"}], "meshes" : [{"primitives" : [{"attributes" : {"POSITION" : 1, "NORMAL" : 2, "TEXCOORD_0" : 3}, "indices" : 0, "mode" : 4}], "name" : ""}], "nodes" : [{"mesh" : 0, "name" : "Tree_lp_11"}, {"camera" : 0, "matrix" : [6.123233995736766E-17, -0.08715574274765817, -0.9961946980917455, 0, 0, 0.9961946980917455, -0.08715574274765817, 0, 1, 5.336750069161486E-18, 6.099933241728101E-17, 0, 0, 75, 400, 1], "name" : "Camera"}], "scene" : 0, "scenes" : [{"nodes" : [0, 1]}]}