<?xml version="1.0" encoding="utf-8"?>
<!-- Generator: Adobe Illustrator 26.0.1, SVG Export Plug-In . SVG Version: 6.00 Build 0)  -->
<svg version="1.1" id="Layer_1" xmlns="http://www.w3.org/2000/svg" xmlns:xlink="http://www.w3.org/1999/xlink" x="0px" y="0px"
	 viewBox="0 0 4013.7 1000" style="enable-background:new 0 0 4013.7 1000;" xml:space="preserve">
<style type="text/css">
	.st0{display:none;fill:#1F1F1C;}
	.st1{fill:none;stroke:#1843B1;stroke-width:30;stroke-miterlimit:10;}
	.st2{fill:#1843B1;}
	.st3{font-family:'IndieFlower';}
	.st4{font-size:846.9426px;}
</style>
<path class="st0" d="M714.6,562.5c-16,11-31.5,21.5-47,32.1c-52.5,35.8-104.9,71.6-157.4,107.4c-2.3,1.6-4,2.6-7,0.7
	c-69.4-42.7-138.8-85.2-208.2-127.8c-1-0.6-1.9-1.2-3.5-2.3c11.2-8.9,22-17.5,33.5-26.7c-11.8-7.3-23.2-14.3-35-21.6
	c11.3-9,22.3-17.7,33.7-26.8c-12.8-7.9-25-15.4-38.4-23.6c9.8-1.5,18.5-2.8,27.2-4.1c11.5-1.7,23-3.5,34.6-5
	c3.1-0.4,4.1-2.6,5.5-4.5c37.3-49.4,74.4-99,112.1-148.1c9.6-12.5,23.1-18.8,39.5-16.4c9.8,1.5,16.8,7.6,22.7,15.1
	c11.4,14.5,18.6,31.4,26.1,48c3.3,7.3,6.3,14.7,10.9,21.2c4.3,6.3,6.6,6.6,12.4,1.7c6.2-5.3,12-11,18.4-16.2
	c8.6-7,18.1-11.8,29.8-10c8.8,1.3,15.9,5.9,21.9,12.1c15.7,16.1,25.5,35.5,31.7,56.9c1.7,5.9,3.3,11.9,3.9,18
	c0.2,2.4,1.6,3.5,3.3,4.6c7.8,5.4,15.5,10.9,23.3,16.3c1.1,0.8,2.4,1.2,2.9,2.8c-11.9,8.1-23.8,16.3-36.2,24.8
	c12.9,7.8,25.4,15.2,38.1,22.9c-12.5,8.6-24.6,16.8-37,25.3C689.1,547.2,701.5,554.7,714.6,562.5z M702.6,562.9
	c-9.2-5.5-17.8-10.2-25.9-15.7c-4.7-3.1-7.9-2.8-12.6,0.4c-51.7,35.5-103.5,70.8-155.2,106.2c-2.9,2-4.9,2.1-7.9,0.2
	c-8.1-5.3-16.4-10.2-24.6-15.2c-47.5-29.1-95-58.2-142.5-87.3c-1.3-0.8-2.4-2.3-4.4-0.7c-8.8,7.1-17.7,14-26.9,21.3
	c1.2,0.8,2,1.3,2.8,1.8c65.9,40.4,131.8,80.7,197.6,121.2c3.1,1.9,4.7,0.7,6.9-0.9c50-34.1,100-68.2,150-102.4
	C674,582.4,688,572.9,702.6,562.9z M301.4,523.8c1.2,0.8,1.7,1.2,2.2,1.5c65.6,40.2,131.2,80.4,196.8,120.7c3.3,2,5.5,2,8.8-0.2
	c53.4-36.6,106.8-73,160.2-109.5c10.5-7.2,21-14.3,31.8-21.7c-9.4-5.6-18.4-10.6-27-16.3c-3.9-2.6-6.4-2.1-10,0.4
	c-52.3,35.8-104.6,71.5-157,107.3c-2.3,1.6-4,2.1-6.6,0.3c-5.6-3.8-11.6-7.2-17.4-10.8c-50-30.7-100-61.3-150.1-92
	c-1.8-1.1-3.3-2.6-5.7-0.6C319.1,509.9,310.4,516.6,301.4,523.8z M464.1,575.6c3.5-17,6.5-33.8,9.1-50.8c0.2-1.4-0.4-2.6-1-3.8
	c-3.4-6.5-5.5-13.5-7.5-20.5c-3.4-11.9-5.9-24.2-11.8-35.3c-6.1-11.3-15.5-17.9-28-20.3c-2.4-0.5-3.9-0.1-5.2,2.2
	c-6.2,10.3-13,20-20.6,29.3c0.3,0.4,0.5,0.7,0.7,0.9c1.4,0.9,2.8,1.8,4.2,2.7c14.9,10.2,25.9,23.2,30.3,41.2
	c2.4,9.5,5,18.9,7.9,28.3C445.6,561.1,451.9,570.6,464.1,575.6z M475.5,509.8c0.8-5,1.7-10.1,2.3-15.1c3.6-28,6.9-56.1,17.1-82.8
	c0.6-1.7,0.5-3-0.7-4.5c-9.1-11.6-20.1-20.6-34.2-25.7c-2.9-1-4-0.3-5.3,2.2c-9.2,17.1-18.5,34.2-27.8,51.2
	c-1.3,2.4-1.6,3.4,1.7,4.1c12.2,2.8,21.8,9.4,28.4,20.2c5.3,8.8,8.1,18.5,10.9,28.2C470.1,495.1,471.7,502.8,475.5,509.8z
	 M578.7,467.9c3.1-1.9,5.1-3.2,7.2-4.5c9.8-6,19.7-11.9,31.6-12.6c2.7-0.1,2.6-2.2,3-3.8c2.1-8.8,5.8-17,10.5-24.6
	c6.4-10.4,14.3-19.6,23.4-27.8c1.1-1,3.1-1.6,1.6-3.9c-6.7-10.2-13.7-20.1-24.9-25.9c-6.5-3.4-7.3-3.2-12.3,2.1
	C592.1,394.8,582.6,429.6,578.7,467.9z M500.4,416.4c-3.2,8.3-5.5,16.3-7.4,24.3c-5.9,25-7.4,50.6-12.1,75.7
	c-0.9,5,0.9,8.2,4.3,11.2c4,3.6,8.8,5.2,14.2,5.2c7.8,0,14.9-3,22.1-5.5c3-1,4.1-2.7,4.5-5.7c1.5-12.4,3.1-24.7,4.6-37.1
	c0.2-1.7,0.3-3.1-1-4.6c-8.3-8.9-12.5-19.8-15.6-31.3C510.9,437.8,506.9,427.1,500.4,416.4z M498.5,402.2
	c9.5-23.1,20.9-44.6,35.3-64.4c0.9-1.2,1-2.2,0.3-3.6c-4.5-8.2-9.4-16-15.6-23.1c-2.7-3.1-4.7-2.8-7.8-0.5
	c-22.6,16.9-37,40.1-51,64.1C475.8,379.7,488.1,389.3,498.5,402.2z M612.3,364.3c-2.7-0.5-4.4,0.8-6,1.7c-5.2,2.8-9.6,6.5-14,10.4
	c-4.7,4.2-9.4,8.5-14.2,12.6c-2.9,2.4-6.4,4.2-10.1,2.8c-3.1-1.2-4.7,0.2-6.5,1.9c-7.7,7.3-12.2,16.5-15.3,26.5
	c-5.6,17.6-5.9,36-8.2,54.2c-0.5,4.3,1.2,6.1,5,6.9c2,0.4,3.9,0.6,5.9,0.3c6.3-1,12.1-3.5,17.8-6.1c4.1-1.9,5.8-4.5,6-9
	c0.9-17,4.3-33.6,9.6-49.8C588.6,397.2,598.1,379.6,612.3,364.3z M538.4,343.2c-0.5,0.4-1,0.6-1.2,1c-13.7,19.4-24.6,40.2-33.3,62.2
	c-0.9,2.1,0.1,3.4,1,4.9c6,9.5,10.5,19.6,13.7,30.3c2.5,8.8,5,17.6,9.5,25.6c0.9,1.6,1.5,3.6,3.5,4.3c1.5-12.3,2.6-24.4,4.5-36.4
	c2.4-15.4,7-30.1,17.3-42.4c2-2.4,5.7-4.4,5.9-6.9c0.2-2.5-3-5.3-4.4-8.1C549.3,366.3,543.9,354.8,538.4,343.2z M700.5,466.2
	c-7.6-5.3-14.4-10.2-21.4-15c-2.1-1.4-3-3-3.3-5.6c-2.1-15.4-6.8-30.1-13.6-44.1c-1.5-3.1-2.6-3.2-4.7-0.8
	c-3.1,3.4-6.6,6.6-9.7,10.1c-9.3,10.6-16.7,22.4-20.5,36.1c-0.4,1.6-2.1,3.8,1.3,4.6c13.8,3.6,21.6,13.6,27.1,25.9
	c2.2,4.9,3.8,10.1,5.8,15.4C674.4,484,687.2,475.3,700.5,466.2z M576,527.4c-0.3,1.8,0.1,3.2,1.5,4.4c3.2,2.7,5.8,5.9,7.8,9.6
	c1,1.9,2.1,2.1,3.9,0.8c4.3-3.1,8.5-6.7,13.2-8.9c10-4.7,12.5-12.6,12.7-22.9c0.3-16.8,0.8-33.6,3.3-50.2c0.5-3.3-0.8-3.2-3.2-2.7
	C601.7,460,591,468,579.8,475c-1.8,1.1-1.3,2.9-1.4,4.5C577.7,495.5,578.4,511.5,576,527.4z M355.9,509.8
	c28,17.2,55.2,33.8,82.4,50.5c-4.4-12.7-7-25.3-10.3-37.8c-4.7-17.4-15.8-29.6-30.6-39c-2.2-1.4-3.4-1.5-5.3,0.6
	C382.1,494.9,370.5,503.7,355.9,509.8z M523.8,533.5c-15.8,5.6-30.6,10.5-44.4-2.2c-0.3,0.4-0.6,0.7-0.6,0.9
	c-2.9,15.2-5.6,30.4-8.6,45.6c-0.4,2.1,1,2.6,2.2,3.3c5,3,9.9,6.1,14.9,9.1c9.4,5.8,9.6,5.9,16.3-3.1
	C515.3,571.5,519.5,553.1,523.8,533.5z M548.7,527.1c0,0,0-0.1,0-0.1c-1.8,0.2-3.7,0.1-5.5,0.5c-3.1,0.6-6.1,1.6-9.2,2.3
	c-2.5,0.5-3.5,2-4,4.4c-4.8,23-9.9,45.9-27.2,63.5c-0.5,0.5-1,1-0.6,1.7c0.5,0.8,1.3,1,2.2,0.5c1-0.6,2-1.2,2.9-1.9
	c13.4-9.2,26.5-18.9,40.4-27.3c9-5.4,13.7-13.2,16.8-22.5c1.7-4.9,5.7-11.2,2.9-15c-3.7-5.1-11.3-5.5-17.8-6
	C549.4,527.1,549,527.1,548.7,527.1z M379.9,435.3c13-0.5,24.6-0.3,36.1,1.6c2.1,0.4,3-0.8,3.8-2.3c2.7-4.9,5.6-9.8,8.3-14.8
	c7.2-13.4,14.5-26.8,21.8-40.5c-8.8-1.9-16.9-1.2-25.1,0.2c-2.5,0.4-4.1,1.6-5.6,3.6c-5.3,7.2-10.8,14.4-16.1,21.5
	C395.5,414.5,388.1,424.4,379.9,435.3z M427.4,372.2c8.6-0.2,16.2-1,23.8,0.6c2.5,0.6,3-1.5,3.9-3c14.2-24.6,29.6-48.2,52.8-65.4
	c-0.4-0.4-0.5-0.7-0.8-0.9c-0.4-0.2-0.9-0.4-1.4-0.5c-13.9-3.6-25.8,1.5-34.1,11.4C456.2,332.7,442.5,352.4,427.4,372.2z
	 M303.9,477.9c15.2,9.3,29.1,17.8,42.9,26.4c1.9,1.2,3.4,0.7,5.1,0c13.1-4.7,23.8-12.9,33.7-22.6c2.5-2.4,2.2-3.4-1-4.5
	c-13-4.4-26.1-7.6-40-5.3C331.5,474.1,318.4,475.8,303.9,477.9z M537,486.1c-1.5,11.5-2.7,22.6-4.3,33.6c-0.5,3.6,0.5,3.4,3.3,2.6
	c7.3-2.1,14.7-2.2,22.2-0.7c4,0.8,7.6,2.8,11.6,3.8c1.6-15.2,2-30.1,2.1-45.6C560.6,485.3,549.9,491.1,537,486.1z M620.7,520.6
	c11.5-7.8,22.1-15.1,32.8-22.3c1.8-1.2,1.6-2.7,1.2-4.3c-2.3-8.4-5.2-16.5-10.3-23.6c-3.8-5.4-8.6-9.7-14.9-12
	c-2.8-1-4.2-1.1-4.7,2.8C622.2,480.6,622.4,500.1,620.7,520.6z M357.7,464.7c7.6,0.7,14.2,2.2,20.8,3.5c5.3,1.1,10.4,6.8,15.4,3.6
	c4.5-2.9,7.2-8.6,10.5-13.1c3.5-4.9,7.1-9.8,9.8-15.4c-6.4-1.6-12.4-1.4-18.4-1.6c-6.3-0.2-12.6,0.3-19,0.3c-1.7,0-2.7,0.8-3.7,2.1
	C368.2,450.8,363.2,457.4,357.7,464.7z M569,555.9c2.2-1.5,3.7-2.5,5.2-3.6c8-5.5,8.1-7.1,0.7-13.9c-0.1-0.1-0.3,0-0.5-0.1
	C572.7,544,570.9,549.6,569,555.9z"/>
<g>
	<path class="st1" d="M230.3,542.6l-60.2,48.8c-8.6,7-7.7,20.3,1.7,26.1l452.7,277.9c5.4,3.3,12.2,3.1,17.4-0.4l436.8-297.8
		c9.7-6.6,9.2-21-0.8-27l-65.2-38.8"/>
	<path class="st1" d="M1023.8,427.3c-4.7-2.8-7.6-7.7-7.8-13.1c-1.5-37.3-12.7-183.6-98.6-191.4c-98.5-8.9-81.3,58.1-140.6,65.9
		c-59.2,7.8-68.2-216.8-177.7-195.2c-98.6,19.5-326.8,284.8-371,337.2c-5.1,6-10.8,11.6-16.9,16.6l-41.2,33.4
		c-8.6,7-7.7,20.3,1.7,26.1l452.7,277.9c5.4,3.3,12.2,3.1,17.4-0.4l436.8-297.8c9.7-6.6,9.2-21-0.8-27L1023.8,427.3z"/>
	<path class="st1" d="M395.4,247.6c0,0,112.2-21.7,186,45.3S615,439.3,719.8,475.6c88.3,30.6,112-35.3,181-26
		c89.7,12.1,100.9,89.3,100.9,89.3"/>
	<path class="st1" d="M278.4,372.6c0,0,147.2-10.2,218.5,64.4c61.1,64,26.7,106.7,93,156.7s74.8,10.6,156.4,15.3
		s87.3,44.3,87.3,44.3"/>
	<path class="st1" d="M218.3,441.1c0,0,135.3-22.5,211.5,92.5c41.5,62.7,23.4,106.9,53.9,138.9c30.5,32,160.1,110.3,160.1,110.3"/>
	<path class="st1" d="M643.8,99.7c0,0-111.8,179.9-165,262S359.2,529.9,290.5,579.6"/>
	<path class="st1" d="M708.7,190.4c0,0-96.9,88.3-110.5,235.2c-13.5,146.9-54.1,273-68,301.2"/>
	<path class="st1" d="M764,286.6c0,0-47.2,65.4-56.6,197.1s-17.7,190.1-46.2,240.8s-39.6,58.3-39.6,58.3"/>
	<path class="st1" d="M921.5,223.3c0,0-81.3,62.1-108,140.8c-26.7,78.8-19.1,200-40.9,246.9c-16.7,36-15.1,71.5-99,151.4"/>
	<path class="st1" d="M983.1,271.6c0,0-57.1,68.1-65.7,139.4c-5,41.7,14.5,154.3-26.6,203.4"/>
</g>
<text transform="matrix(1 0 0 1 1254.2584 762.5021)" class="st2 st3 st4">terrain7</text>
</svg>
