<?xml version="1.0" encoding="utf-8"?>
<!-- Generator: Adobe Illustrator 26.0.1, SVG Export Plug-In . SVG Version: 6.00 Build 0)  -->
<svg version="1.1" id="Layer_1" xmlns="http://www.w3.org/2000/svg" xmlns:xlink="http://www.w3.org/1999/xlink" x="0px" y="0px"
	 viewBox="0 0 1000 1000" style="enable-background:new 0 0 1000 1000;" xml:space="preserve">
<style type="text/css">
	.st0{display:none;fill:#1F1F1C;}
	.st1{fill:none;stroke:#1843B1;stroke-width:22;stroke-miterlimit:10;}
	.st2{fill:#1843B1;}
	.st3{font-family:'Consolas-BoldItalic';}
	.st4{font-size:177.0789px;}
</style>
<path class="st0" d="M714.62,562.52c-16.03,10.96-31.53,21.55-47.03,32.14c-52.46,35.81-104.94,71.6-157.38,107.44
	c-2.3,1.57-4.02,2.56-7,0.73c-69.36-42.66-138.8-85.19-208.23-127.75c-0.97-0.6-1.92-1.23-3.52-2.26
	c11.19-8.9,22.03-17.53,33.55-26.71c-11.77-7.26-23.24-14.33-34.97-21.57c11.27-8.97,22.31-17.74,33.74-26.83
	c-12.78-7.85-25.04-15.38-38.36-23.56c9.79-1.48,18.5-2.82,27.22-4.11c11.51-1.71,23.02-3.51,34.56-4.99
	c3.08-0.4,4.08-2.65,5.51-4.54c37.33-49.38,74.39-98.95,112.06-148.07c9.6-12.52,23.14-18.84,39.48-16.42
	c9.8,1.45,16.78,7.57,22.69,15.09c11.43,14.53,18.56,31.4,26.07,48.05c3.28,7.27,6.33,14.66,10.89,21.25
	c4.33,6.26,6.63,6.58,12.39,1.66c6.2-5.29,12.02-11.05,18.36-16.16c8.62-6.95,18.12-11.78,29.78-10.05
	c8.82,1.31,15.86,5.93,21.87,12.09c15.69,16.08,25.47,35.52,31.69,56.9c1.72,5.91,3.26,11.88,3.87,18c0.24,2.38,1.63,3.46,3.27,4.61
	c7.77,5.43,15.53,10.88,23.28,16.33c1.07,0.75,2.41,1.21,2.89,2.8c-11.88,8.13-23.8,16.29-36.18,24.76
	c12.92,7.76,25.37,15.23,38.09,22.87c-12.52,8.56-24.56,16.78-36.99,25.28C689.11,547.25,701.5,554.67,714.62,562.52z
	 M702.59,562.89c-9.18-5.5-17.78-10.25-25.92-15.7c-4.68-3.13-7.93-2.79-12.56,0.4c-51.66,35.54-103.52,70.79-155.24,106.23
	c-2.91,1.99-4.9,2.1-7.88,0.16c-8.06-5.28-16.39-10.15-24.61-15.18c-47.48-29.09-94.96-58.19-142.46-87.26
	c-1.29-0.79-2.41-2.31-4.36-0.73c-8.78,7.08-17.66,14.04-26.87,21.33c1.25,0.81,2.03,1.32,2.82,1.81
	c65.89,40.38,131.8,80.74,197.61,121.24c3.07,1.89,4.7,0.66,6.92-0.86c49.99-34.14,100.01-68.24,150.02-102.36
	C674.05,582.43,688.01,572.86,702.59,562.89z M301.39,523.78c1.18,0.81,1.69,1.19,2.24,1.53c65.6,40.22,131.23,80.41,196.76,120.73
	c3.34,2.05,5.52,2.01,8.76-0.21c53.36-36.59,106.81-73.03,160.25-109.5c10.51-7.17,21-14.35,31.82-21.74
	c-9.38-5.61-18.41-10.61-26.98-16.3c-3.91-2.6-6.42-2.06-10.01,0.4c-52.26,35.83-104.64,71.51-156.95,107.27
	c-2.29,1.56-3.98,2.07-6.57,0.31c-5.63-3.83-11.57-7.19-17.38-10.75c-50.03-30.66-100.05-61.32-150.07-91.98
	c-1.81-1.11-3.26-2.58-5.68-0.59C319.11,509.89,310.43,516.61,301.39,523.78z M464.13,575.64c3.46-17.03,6.47-33.85,9.08-50.75
	c0.22-1.43-0.37-2.56-0.99-3.76c-3.35-6.53-5.48-13.5-7.49-20.54c-3.42-11.94-5.86-24.21-11.83-35.31
	c-6.07-11.31-15.52-17.85-28.03-20.32c-2.44-0.48-3.86-0.06-5.22,2.2c-6.16,10.27-13.05,20.05-20.62,29.3
	c0.29,0.37,0.45,0.7,0.71,0.88c1.38,0.93,2.8,1.79,4.17,2.73c14.88,10.19,25.85,23.22,30.33,41.15c2.37,9.49,5.04,18.92,7.88,28.29
	C445.64,561.08,451.86,570.6,464.13,575.64z M475.55,509.8c0.77-5.04,1.66-10.07,2.31-15.13c3.58-28.03,6.93-56.1,17.11-82.76
	c0.65-1.71,0.47-3.02-0.71-4.52c-9.12-11.62-20.13-20.62-34.22-25.68c-2.9-1.04-3.98-0.32-5.33,2.2
	c-9.17,17.12-18.47,34.17-27.82,51.19c-1.34,2.44-1.62,3.37,1.74,4.14c12.18,2.8,21.82,9.38,28.41,20.22
	c5.33,8.77,8.14,18.49,10.91,28.23C470.07,495.15,471.7,502.75,475.55,509.8z M578.71,467.9c3.07-1.91,5.14-3.21,7.23-4.49
	c9.8-6.03,19.68-11.9,31.57-12.57c2.74-0.15,2.64-2.17,3.03-3.78c2.11-8.82,5.77-16.96,10.49-24.65
	c6.4-10.42,14.27-19.61,23.36-27.79c1.06-0.96,3.12-1.58,1.6-3.88c-6.72-10.19-13.73-20.12-24.94-25.93
	c-6.52-3.38-7.29-3.19-12.32,2.08C592.08,394.83,582.57,429.58,578.71,467.9z M500.37,416.44c-3.18,8.32-5.45,16.28-7.36,24.34
	c-5.91,24.95-7.39,50.6-12.06,75.74c-0.94,5.04,0.88,8.22,4.27,11.21c4.05,3.56,8.79,5.24,14.16,5.21
	c7.81-0.05,14.86-3.05,22.09-5.49c3.04-1.02,4.1-2.71,4.45-5.68c1.45-12.37,3.07-24.73,4.64-37.09c0.21-1.67,0.32-3.12-1.04-4.57
	c-8.3-8.86-12.46-19.83-15.6-31.29C510.89,437.75,506.88,427.09,500.37,416.44z M498.51,402.16c9.53-23.06,20.88-44.58,35.29-64.39
	c0.89-1.23,1.02-2.17,0.26-3.57c-4.45-8.21-9.43-16.01-15.58-23.1c-2.7-3.11-4.71-2.8-7.78-0.51
	c-22.57,16.85-36.96,40.08-50.95,64.1C475.76,379.73,488.06,389.32,498.51,402.16z M612.27,364.27c-2.73-0.54-4.36,0.78-6.04,1.68
	c-5.17,2.77-9.63,6.5-13.97,10.4c-4.7,4.23-9.37,8.51-14.22,12.57c-2.88,2.41-6.42,4.22-10.14,2.79c-3.07-1.19-4.66,0.2-6.49,1.93
	c-7.71,7.32-12.17,16.55-15.31,26.49c-5.57,17.62-5.89,36.04-8.2,54.17c-0.54,4.29,1.15,6.12,5,6.9c1.98,0.4,3.89,0.63,5.93,0.33
	c6.33-0.95,12.07-3.45,17.83-6.13c4.09-1.91,5.8-4.45,6.03-9.05c0.86-17.03,4.26-33.63,9.57-49.82
	C588.62,397.2,598.13,379.64,612.27,364.27z M538.42,343.18c-0.47,0.36-0.96,0.59-1.23,0.97c-13.69,19.37-24.6,40.22-33.33,62.25
	c-0.85,2.15,0.08,3.42,1.05,4.94c5.99,9.47,10.53,19.61,13.65,30.34c2.55,8.78,4.96,17.6,9.52,25.61c0.9,1.59,1.5,3.59,3.46,4.26
	c1.48-12.3,2.62-24.41,4.47-36.41c2.37-15.44,6.98-30.12,17.28-42.38c2-2.38,5.7-4.43,5.93-6.88c0.24-2.53-3-5.27-4.36-8.09
	C549.32,366.33,543.92,354.79,538.42,343.18z M700.52,466.18c-7.56-5.31-14.43-10.23-21.43-14.98c-2.1-1.42-3-3-3.35-5.59
	c-2.11-15.42-6.83-30.06-13.63-44.08c-1.48-3.06-2.56-3.21-4.74-0.83c-3.14,3.44-6.6,6.6-9.66,10.1
	c-9.29,10.63-16.65,22.4-20.47,36.12c-0.43,1.56-2.1,3.75,1.31,4.63c13.82,3.57,21.6,13.65,27.14,25.88
	c2.22,4.9,3.83,10.07,5.8,15.37C674.39,484,687.15,475.3,700.52,466.18z M575.97,527.36c-0.33,1.77,0.07,3.18,1.52,4.42
	c3.18,2.72,5.85,5.91,7.83,9.61c1.04,1.94,2.07,2.1,3.87,0.79c4.3-3.12,8.45-6.68,13.21-8.9c10.02-4.68,12.51-12.57,12.72-22.88
	c0.34-16.78,0.84-33.6,3.31-50.25c0.48-3.26-0.79-3.17-3.21-2.72c-13.48,2.53-24.2,10.55-35.41,17.62c-1.75,1.1-1.34,2.91-1.41,4.5
	C577.74,495.51,578.37,511.52,575.97,527.36z M355.91,509.8c28.04,17.18,55.21,33.82,82.37,50.47
	c-4.39-12.67-6.95-25.33-10.27-37.75c-4.66-17.42-15.79-29.56-30.57-38.99c-2.17-1.38-3.43-1.49-5.34,0.57
	C382.07,494.92,370.53,503.72,355.91,509.8z M523.79,533.55c-15.76,5.63-30.64,10.47-44.36-2.17c-0.31,0.43-0.6,0.65-0.65,0.92
	c-2.85,15.19-5.65,30.39-8.56,45.57c-0.4,2.09,0.96,2.56,2.2,3.32c4.96,3.04,9.93,6.06,14.89,9.1c9.44,5.81,9.56,5.9,16.3-3.14
	C515.26,571.54,519.51,553.11,523.79,533.55z M548.71,527.09c0-0.04-0.01-0.09-0.01-0.13c-1.82,0.15-3.68,0.12-5.45,0.48
	c-3.08,0.64-6.08,1.63-9.16,2.26c-2.51,0.51-3.49,2-3.99,4.38c-4.81,23-9.94,45.87-27.19,63.55c-0.47,0.49-1.02,1.03-0.59,1.69
	c0.5,0.75,1.34,0.98,2.17,0.5c1.01-0.58,1.97-1.23,2.93-1.88c13.44-9.17,26.53-18.93,40.44-27.32c9.03-5.44,13.69-13.22,16.79-22.47
	c1.66-4.94,5.66-11.16,2.89-15.01c-3.69-5.14-11.31-5.49-17.83-6.05C549.38,527.07,549.04,527.09,548.71,527.09z M379.9,435.29
	c12.98-0.5,24.6-0.32,36.11,1.61c2.15,0.36,2.95-0.8,3.79-2.32c2.73-4.93,5.58-9.8,8.27-14.75c7.25-13.38,14.45-26.8,21.8-40.46
	c-8.76-1.92-16.93-1.19-25.14,0.23c-2.51,0.43-4.12,1.57-5.58,3.56c-5.31,7.23-10.75,14.35-16.15,21.52
	C395.55,414.55,388.09,424.43,379.9,435.29z M427.44,372.23c8.6-0.23,16.25-1.03,23.82,0.63c2.54,0.56,2.96-1.49,3.85-3.03
	c14.17-24.59,29.56-48.19,52.84-65.42c-0.37-0.41-0.55-0.73-0.82-0.88c-0.43-0.23-0.91-0.38-1.39-0.51
	c-13.87-3.65-25.8,1.54-34.14,11.43C456.19,332.72,442.46,352.38,427.44,372.23z M303.86,477.9c15.24,9.33,29.12,17.78,42.92,26.36
	c1.89,1.17,3.38,0.66,5.14,0.02c13.11-4.72,23.84-12.93,33.68-22.56c2.46-2.41,2.23-3.44-0.96-4.5
	c-13.02-4.35-26.09-7.62-40.05-5.31C331.52,474.09,318.36,475.79,303.86,477.9z M537.02,486.15c-1.46,11.54-2.7,22.62-4.34,33.63
	c-0.54,3.6,0.54,3.44,3.26,2.64c7.33-2.14,14.73-2.17,22.23-0.65c3.99,0.81,7.58,2.79,11.6,3.79c1.61-15.22,1.97-30.13,2.14-45.56
	C560.64,485.28,549.9,491.07,537.02,486.15z M620.72,520.59c11.45-7.8,22.08-15.09,32.78-22.27c1.85-1.24,1.59-2.73,1.15-4.34
	c-2.28-8.36-5.22-16.45-10.33-23.56c-3.85-5.36-8.57-9.67-14.93-11.95c-2.81-1.01-4.2-1.1-4.71,2.79
	C622.15,480.58,622.42,500.06,620.72,520.59z M357.67,464.71c7.6,0.66,14.2,2.18,20.84,3.53c5.27,1.07,10.41,6.75,15.37,3.57
	c4.47-2.86,7.2-8.56,10.49-13.15c3.51-4.9,7.07-9.8,9.83-15.35c-6.38-1.6-12.42-1.42-18.39-1.58c-6.32-0.17-12.64,0.27-18.97,0.32
	c-1.73,0.01-2.72,0.79-3.67,2.06C368.21,450.77,363.19,457.39,357.67,464.71z M569.01,555.9c2.19-1.51,3.68-2.54,5.18-3.57
	c8.01-5.5,8.09-7.11,0.68-13.88c-0.1-0.09-0.32-0.05-0.49-0.07C572.67,544,570.94,549.61,569.01,555.9z"/>
<polyline class="st1" points="181.27,474.45 118.81,525.07 504.85,762.04 879.13,506.9 809.39,465.45 "/>
<path class="st1" d="M812.27,378.21c0,0-0.22-153.4-79.34-160.57c-79.12-7.18-65.32,46.65-112.87,52.93S565.34,96.53,477.42,113.88
	c-79.21,15.63-262.38,228.66-297.88,270.7c-4.1,4.85-8.65,9.3-13.58,13.3l-47.17,38.22l386.04,236.96l374.28-255.13L812.27,378.21z"
	/>
<path class="st1" d="M313.86,237.54c0,0,90.1-17.44,149.37,36.39s26.97,117.53,111.08,146.68c70.88,24.57,89.92-28.35,145.33-20.86
	c71.99,9.73,80.98,71.68,80.98,71.68"/>
<path class="st1" d="M219.92,337.96c0,0,118.21-8.18,175.41,51.7c49.05,51.36,21.47,85.65,74.69,125.82
	c53.21,40.17,60.05,8.49,125.57,12.32s70.12,35.6,70.12,35.6"/>
<path class="st1" d="M171.64,392.88c0,0,108.63-18.02,169.82,74.3c33.34,50.3,18.79,85.84,43.3,111.55
	c24.5,25.71,128.53,88.57,128.53,88.57"/>
<path class="st1" d="M513.28,118.81c0,0-89.8,144.48-132.47,210.35s-96,135.04-151.17,174.98"/>
<path class="st1" d="M565.43,191.61c0,0-77.84,70.87-88.69,188.84s-43.45,219.17-54.57,241.88"/>
<path class="st1" d="M609.76,268.88c0,0-37.92,52.52-45.45,158.23s-14.21,152.66-37.1,193.35s-31.77,46.85-31.77,46.85"/>
<path class="st1" d="M736.28,218.04c0,0-65.32,49.83-86.73,113.08c-21.42,63.25-15.36,160.58-32.86,198.26
	c-13.44,28.94-12.11,57.42-79.47,121.6"/>
<path class="st1" d="M785.71,256.84c0,0-45.88,54.64-52.78,111.96c-4.03,33.51,11.61,123.91-21.36,163.34"/>
<text transform="matrix(1 0 0 1 109.7495 887.6152)" class="st2 st3 st4">terrain7</text>
</svg>
